<svg width="24" height="24" viewBox="0 0 24 24" fill="none" xmlns="http://www.w3.org/2000/svg">
<path d="M11.3861 4.74434C11.7472 4.46348 12.2529 4.46348 12.614 4.74434L20.3861 10.7893C20.8221 11.1284 21.4503 11.0499 21.7894 10.6139C22.1285 10.178 22.0499 9.54969 21.614 9.21062L13.8419 3.16564C12.7585 2.32304 11.2416 2.32304 10.1582 3.16563L2.38611 9.21062C1.95016 9.54969 1.87162 10.178 2.21069 10.6139C2.54976 11.0499 3.17804 11.1284 3.61399 10.7893L11.3861 4.74434Z" fill="#1F1F26"/>
<path d="M7 13C7 12.4477 6.55228 12 6 12C5.44772 12 5 12.4477 5 13V19C5 20.6569 6.34315 22 8 22H16C17.6569 22 19 20.6569 19 19V13C19 12.4477 18.5523 12 18 12C17.4477 12 17 12.4477 17 13V19C17 19.5523 16.5523 20 16 20H8C7.44772 20 7 19.5523 7 19V13Z" fill="#1F1F26"/>
</svg>
